<?xml version="1.0" encoding="UTF-8" standalone="no"?>
<!DOCTYPE svg PUBLIC "-//W3C//DTD SVG 1.1//EN"
 "http://www.w3.org/Graphics/SVG/1.1/DTD/svg11.dtd">
<!-- Generated by graphviz version 9.0.0 (20230911.1827)
 -->
<!-- Pages: 1 -->
<svg width="426pt" height="467pt"
 viewBox="0.00 0.00 425.50 467.25" xmlns="http://www.w3.org/2000/svg" xmlns:xlink="http://www.w3.org/1999/xlink">
<g id="graph0" class="graph" transform="scale(1 1) rotate(0) translate(4 463.25)">
<polygon fill="#eeeeee" stroke="none" points="-4,4 -4,-463.25 421.5,-463.25 421.5,4 -4,4"/>
<!-- User -->
<g id="node1" class="node">
<title>User</title>
<g id="a_node1"><a xlink:href="http://User_details.html" xlink:title="&lt;TABLE&gt;">
<polygon fill="#3f51b5" stroke="none" points="8,-437.25 8,-455.25 203,-455.25 203,-437.25 8,-437.25"/>
<polygon fill="none" stroke="black" points="8,-437.25 8,-455.25 203,-455.25 203,-437.25 8,-437.25"/>
<text text-anchor="start" x="92.75" y="-440.85" font-family="Roboto" font-size="12.00" fill="white">User</text>
<polygon fill="#bbdefb" stroke="none" points="8,-419.25 8,-437.25 89,-437.25 89,-419.25 8,-419.25"/>
<polygon fill="none" stroke="black" points="8,-419.25 8,-437.25 89,-437.25 89,-419.25 8,-419.25"/>
<text text-anchor="start" x="43.62" y="-422.85" font-family="Roboto" font-size="12.00">id</text>
<polygon fill="#bbdefb" stroke="none" points="89,-419.25 89,-437.25 203,-437.25 203,-419.25 89,-419.25"/>
<polygon fill="none" stroke="black" points="89,-419.25 89,-437.25 203,-437.25 203,-419.25 89,-419.25"/>
<text text-anchor="start" x="105.5" y="-422.85" font-family="Roboto" font-size="12.00">INTEGER (PK)</text>
<polygon fill="#bbdefb" stroke="none" points="8,-401.25 8,-419.25 89,-419.25 89,-401.25 8,-401.25"/>
<polygon fill="none" stroke="black" points="8,-401.25 8,-419.25 89,-419.25 89,-401.25 8,-401.25"/>
<text text-anchor="start" x="33.5" y="-404.85" font-family="Roboto" font-size="12.00">name</text>
<polygon fill="#bbdefb" stroke="none" points="89,-401.25 89,-419.25 203,-419.25 203,-401.25 89,-401.25"/>
<polygon fill="none" stroke="black" points="89,-401.25 89,-419.25 203,-419.25 203,-401.25 89,-401.25"/>
<text text-anchor="start" x="91.62" y="-404.85" font-family="Roboto" font-size="12.00">VARCHAR (Unique)</text>
<polygon fill="#bbdefb" stroke="none" points="8,-383.25 8,-401.25 89,-401.25 89,-383.25 8,-383.25"/>
<polygon fill="none" stroke="black" points="8,-383.25 8,-401.25 89,-401.25 89,-383.25 8,-383.25"/>
<text text-anchor="start" x="20" y="-386.85" font-family="Roboto" font-size="12.00">uidnumber</text>
<polygon fill="#bbdefb" stroke="none" points="89,-383.25 89,-401.25 203,-401.25 203,-383.25 89,-383.25"/>
<polygon fill="none" stroke="black" points="89,-383.25 89,-401.25 203,-401.25 203,-383.25 89,-383.25"/>
<text text-anchor="start" x="113.75" y="-386.85" font-family="Roboto" font-size="12.00">INTEGER ()</text>
<polygon fill="#bbdefb" stroke="none" points="8,-365.25 8,-383.25 89,-383.25 89,-365.25 8,-365.25"/>
<polygon fill="none" stroke="black" points="8,-365.25 8,-383.25 89,-383.25 89,-365.25 8,-365.25"/>
<text text-anchor="start" x="13.25" y="-368.85" font-family="Roboto" font-size="12.00">primarygroup</text>
<polygon fill="#bbdefb" stroke="none" points="89,-365.25 89,-383.25 203,-383.25 203,-365.25 89,-365.25"/>
<polygon fill="none" stroke="black" points="89,-365.25 89,-383.25 203,-383.25 203,-365.25 89,-365.25"/>
<text text-anchor="start" x="113.75" y="-368.85" font-family="Roboto" font-size="12.00">INTEGER ()</text>
<polygon fill="#bbdefb" stroke="none" points="8,-347.25 8,-365.25 89,-365.25 89,-347.25 8,-347.25"/>
<polygon fill="none" stroke="black" points="8,-347.25 8,-365.25 89,-365.25 89,-347.25 8,-347.25"/>
<text text-anchor="start" x="16.62" y="-350.85" font-family="Roboto" font-size="12.00">othergroups</text>
<polygon fill="#bbdefb" stroke="none" points="89,-347.25 89,-365.25 203,-365.25 203,-347.25 89,-347.25"/>
<polygon fill="none" stroke="black" points="89,-347.25 89,-365.25 203,-365.25 203,-347.25 89,-347.25"/>
<text text-anchor="start" x="125" y="-350.85" font-family="Roboto" font-size="12.00">TEXT ()</text>
<polygon fill="#bbdefb" stroke="none" points="8,-329.25 8,-347.25 89,-347.25 89,-329.25 8,-329.25"/>
<polygon fill="none" stroke="black" points="8,-329.25 8,-347.25 89,-347.25 89,-329.25 8,-329.25"/>
<text text-anchor="start" x="18.88" y="-332.85" font-family="Roboto" font-size="12.00">givenname</text>
<polygon fill="#bbdefb" stroke="none" points="89,-329.25 89,-347.25 203,-347.25 203,-329.25 89,-329.25"/>
<polygon fill="none" stroke="black" points="89,-329.25 89,-347.25 203,-347.25 203,-329.25 89,-329.25"/>
<text text-anchor="start" x="111.12" y="-332.85" font-family="Roboto" font-size="12.00">VARCHAR ()</text>
<polygon fill="#bbdefb" stroke="none" points="8,-311.25 8,-329.25 89,-329.25 89,-311.25 8,-311.25"/>
<polygon fill="none" stroke="black" points="8,-311.25 8,-329.25 89,-329.25 89,-311.25 8,-311.25"/>
<text text-anchor="start" x="42.12" y="-314.85" font-family="Roboto" font-size="12.00">sn</text>
<polygon fill="#bbdefb" stroke="none" points="89,-311.25 89,-329.25 203,-329.25 203,-311.25 89,-311.25"/>
<polygon fill="none" stroke="black" points="89,-311.25 89,-329.25 203,-329.25 203,-311.25 89,-311.25"/>
<text text-anchor="start" x="111.12" y="-314.85" font-family="Roboto" font-size="12.00">VARCHAR ()</text>
<polygon fill="#bbdefb" stroke="none" points="8,-293.25 8,-311.25 89,-311.25 89,-293.25 8,-293.25"/>
<polygon fill="none" stroke="black" points="8,-293.25 8,-311.25 89,-311.25 89,-293.25 8,-293.25"/>
<text text-anchor="start" x="37.25" y="-296.85" font-family="Roboto" font-size="12.00">mail</text>
<polygon fill="#bbdefb" stroke="none" points="89,-293.25 89,-311.25 203,-311.25 203,-293.25 89,-293.25"/>
<polygon fill="none" stroke="black" points="89,-293.25 89,-311.25 203,-311.25 203,-293.25 89,-293.25"/>
<text text-anchor="start" x="111.12" y="-296.85" font-family="Roboto" font-size="12.00">VARCHAR ()</text>
<polygon fill="#bbdefb" stroke="none" points="8,-275.25 8,-293.25 89,-293.25 89,-275.25 8,-275.25"/>
<polygon fill="none" stroke="black" points="8,-275.25 8,-293.25 89,-293.25 89,-275.25 8,-275.25"/>
<text text-anchor="start" x="22.62" y="-278.85" font-family="Roboto" font-size="12.00">loginshell</text>
<polygon fill="#bbdefb" stroke="none" points="89,-275.25 89,-293.25 203,-293.25 203,-275.25 89,-275.25"/>
<polygon fill="none" stroke="black" points="89,-275.25 89,-293.25 203,-293.25 203,-275.25 89,-275.25"/>
<text text-anchor="start" x="111.12" y="-278.85" font-family="Roboto" font-size="12.00">VARCHAR ()</text>
<polygon fill="#bbdefb" stroke="none" points="8,-257.25 8,-275.25 89,-275.25 89,-257.25 8,-257.25"/>
<polygon fill="none" stroke="black" points="8,-257.25 8,-275.25 89,-275.25 89,-257.25 8,-257.25"/>
<text text-anchor="start" x="10.62" y="-260.85" font-family="Roboto" font-size="12.00">homedirectory</text>
<polygon fill="#bbdefb" stroke="none" points="89,-257.25 89,-275.25 203,-275.25 203,-257.25 89,-257.25"/>
<polygon fill="none" stroke="black" points="89,-257.25 89,-275.25 203,-275.25 203,-257.25 89,-257.25"/>
<text text-anchor="start" x="111.12" y="-260.85" font-family="Roboto" font-size="12.00">VARCHAR ()</text>
<polygon fill="#bbdefb" stroke="none" points="8,-239.25 8,-257.25 89,-257.25 89,-239.25 8,-239.25"/>
<polygon fill="none" stroke="black" points="8,-239.25 8,-257.25 89,-257.25 89,-239.25 8,-239.25"/>
<text text-anchor="start" x="25.62" y="-242.85" font-family="Roboto" font-size="12.00">disabled</text>
<polygon fill="#bbdefb" stroke="none" points="89,-239.25 89,-257.25 203,-257.25 203,-239.25 89,-239.25"/>
<polygon fill="none" stroke="black" points="89,-239.25 89,-257.25 203,-257.25 203,-239.25 89,-239.25"/>
<text text-anchor="start" x="111.12" y="-242.85" font-family="Roboto" font-size="12.00">SMALLINT ()</text>
<polygon fill="#bbdefb" stroke="none" points="8,-221.25 8,-239.25 89,-239.25 89,-221.25 8,-221.25"/>
<polygon fill="none" stroke="black" points="8,-221.25 8,-239.25 89,-239.25 89,-221.25 8,-221.25"/>
<text text-anchor="start" x="15.88" y="-224.85" font-family="Roboto" font-size="12.00">passsha256</text>
<polygon fill="#bbdefb" stroke="none" points="89,-221.25 89,-239.25 203,-239.25 203,-221.25 89,-221.25"/>
<polygon fill="none" stroke="black" points="89,-221.25 89,-239.25 203,-239.25 203,-221.25 89,-221.25"/>
<text text-anchor="start" x="111.12" y="-224.85" font-family="Roboto" font-size="12.00">VARCHAR ()</text>
<polygon fill="#bbdefb" stroke="none" points="8,-203.25 8,-221.25 89,-221.25 89,-203.25 8,-203.25"/>
<polygon fill="none" stroke="black" points="8,-203.25 8,-221.25 89,-221.25 89,-203.25 8,-203.25"/>
<text text-anchor="start" x="19.62" y="-206.85" font-family="Roboto" font-size="12.00">passbcrypt</text>
<polygon fill="#bbdefb" stroke="none" points="89,-203.25 89,-221.25 203,-221.25 203,-203.25 89,-203.25"/>
<polygon fill="none" stroke="black" points="89,-203.25 89,-221.25 203,-221.25 203,-203.25 89,-203.25"/>
<text text-anchor="start" x="111.12" y="-206.85" font-family="Roboto" font-size="12.00">VARCHAR ()</text>
<polygon fill="#bbdefb" stroke="none" points="8,-185.25 8,-203.25 89,-203.25 89,-185.25 8,-185.25"/>
<polygon fill="none" stroke="black" points="8,-185.25 8,-203.25 89,-203.25 89,-185.25 8,-185.25"/>
<text text-anchor="start" x="24.12" y="-188.85" font-family="Roboto" font-size="12.00">otpsecret</text>
<polygon fill="#bbdefb" stroke="none" points="89,-185.25 89,-203.25 203,-203.25 203,-185.25 89,-185.25"/>
<polygon fill="none" stroke="black" points="89,-185.25 89,-203.25 203,-203.25 203,-185.25 89,-185.25"/>
<text text-anchor="start" x="111.12" y="-188.85" font-family="Roboto" font-size="12.00">VARCHAR ()</text>
<polygon fill="#bbdefb" stroke="none" points="8,-167.25 8,-185.25 89,-185.25 89,-167.25 8,-167.25"/>
<polygon fill="none" stroke="black" points="8,-167.25 8,-185.25 89,-185.25 89,-167.25 8,-167.25"/>
<text text-anchor="start" x="27.88" y="-170.85" font-family="Roboto" font-size="12.00">yubikey</text>
<polygon fill="#bbdefb" stroke="none" points="89,-167.25 89,-185.25 203,-185.25 203,-167.25 89,-167.25"/>
<polygon fill="none" stroke="black" points="89,-167.25 89,-185.25 203,-185.25 203,-167.25 89,-167.25"/>
<text text-anchor="start" x="111.12" y="-170.85" font-family="Roboto" font-size="12.00">VARCHAR ()</text>
<polygon fill="#bbdefb" stroke="none" points="8,-149.25 8,-167.25 89,-167.25 89,-149.25 8,-149.25"/>
<polygon fill="none" stroke="black" points="8,-149.25 8,-167.25 89,-167.25 89,-149.25 8,-149.25"/>
<text text-anchor="start" x="26.75" y="-152.85" font-family="Roboto" font-size="12.00">sshkeys</text>
<polygon fill="#bbdefb" stroke="none" points="89,-149.25 89,-167.25 203,-167.25 203,-149.25 89,-149.25"/>
<polygon fill="none" stroke="black" points="89,-149.25 89,-167.25 203,-167.25 203,-149.25 89,-149.25"/>
<text text-anchor="start" x="111.12" y="-152.85" font-family="Roboto" font-size="12.00">VARCHAR ()</text>
<polygon fill="#bbdefb" stroke="none" points="8,-131.25 8,-149.25 89,-149.25 89,-131.25 8,-131.25"/>
<polygon fill="none" stroke="black" points="8,-131.25 8,-149.25 89,-149.25 89,-131.25 8,-131.25"/>
<text text-anchor="start" x="29.38" y="-134.85" font-family="Roboto" font-size="12.00">custattr</text>
<polygon fill="#bbdefb" stroke="none" points="89,-131.25 89,-149.25 203,-149.25 203,-131.25 89,-131.25"/>
<polygon fill="none" stroke="black" points="89,-131.25 89,-149.25 203,-149.25 203,-131.25 89,-131.25"/>
<text text-anchor="start" x="111.12" y="-134.85" font-family="Roboto" font-size="12.00">VARCHAR ()</text>
</a>
</g>
</g>
<!-- Group -->
<g id="node2" class="node">
<title>Group</title>
<g id="a_node2"><a xlink:href="http://Group_details.html" xlink:title="&lt;TABLE&gt;">
<polygon fill="#3f51b5" stroke="none" points="123,-58 123,-76 300,-76 300,-58 123,-58"/>
<polygon fill="none" stroke="black" points="123,-58 123,-76 300,-76 300,-58 123,-58"/>
<text text-anchor="start" x="195" y="-61.6" font-family="Roboto" font-size="12.00" fill="white">Group</text>
<polygon fill="#bbdefb" stroke="none" points="123,-40 123,-58 186,-58 186,-40 123,-40"/>
<polygon fill="none" stroke="black" points="123,-40 123,-58 186,-58 186,-40 123,-40"/>
<text text-anchor="start" x="149.62" y="-43.6" font-family="Roboto" font-size="12.00">id</text>
<polygon fill="#bbdefb" stroke="none" points="186,-40 186,-58 300,-58 300,-40 186,-40"/>
<polygon fill="none" stroke="black" points="186,-40 186,-58 300,-58 300,-40 186,-40"/>
<text text-anchor="start" x="202.5" y="-43.6" font-family="Roboto" font-size="12.00">INTEGER (PK)</text>
<polygon fill="#bbdefb" stroke="none" points="123,-22 123,-40 186,-40 186,-22 123,-22"/>
<polygon fill="none" stroke="black" points="123,-22 123,-40 186,-40 186,-22 123,-22"/>
<text text-anchor="start" x="139.5" y="-25.6" font-family="Roboto" font-size="12.00">name</text>
<polygon fill="#bbdefb" stroke="none" points="186,-22 186,-40 300,-40 300,-22 186,-22"/>
<polygon fill="none" stroke="black" points="186,-22 186,-40 300,-40 300,-22 186,-22"/>
<text text-anchor="start" x="188.62" y="-25.6" font-family="Roboto" font-size="12.00">VARCHAR (Unique)</text>
<polygon fill="#bbdefb" stroke="none" points="123,-4 123,-22 186,-22 186,-4 123,-4"/>
<polygon fill="none" stroke="black" points="123,-4 123,-22 186,-22 186,-4 123,-4"/>
<text text-anchor="start" x="126" y="-7.6" font-family="Roboto" font-size="12.00">gidnumber</text>
<polygon fill="#bbdefb" stroke="none" points="186,-4 186,-22 300,-22 300,-4 186,-4"/>
<polygon fill="none" stroke="black" points="186,-4 186,-22 300,-22 300,-4 186,-4"/>
<text text-anchor="start" x="210.75" y="-7.6" font-family="Roboto" font-size="12.00">INTEGER ()</text>
</a>
</g>
</g>
<!-- User&#45;&gt;Group -->
<g id="edge1" class="edge">
<title>User&#45;&gt;Group</title>
<g id="a_edge1"><a xlink:title="Relation between User and Group">
<path fill="none" stroke="#1e88e5" stroke-dasharray="5,2" d="M125.35,-127.48C129.31,-117.19 133.98,-107.27 139.5,-98 141.52,-94.61 143.82,-91.34 146.33,-88.21"/>
<polygon fill="#1e88e5" stroke="#1e88e5" points="148.85,-90.64 152.89,-80.85 143.63,-85.98 148.85,-90.64"/>
</a>
</g>
<text text-anchor="middle" x="151.5" y="-99.75" font-family="Roboto" font-size="10.00">group</text>
</g>
<!-- Group&#45;&gt;User -->
<g id="edge2" class="edge">
<title>Group&#45;&gt;User</title>
<g id="a_edge2"><a xlink:title="Relation between Group and User">
<path fill="none" stroke="#1e88e5" stroke-dasharray="5,2" d="M195.16,-79.73C190.55,-90.67 185.21,-103.33 179.47,-116.91"/>
<polygon fill="#1e88e5" stroke="#1e88e5" points="176.27,-115.5 175.61,-126.07 182.72,-118.22 176.27,-115.5"/>
</a>
</g>
<text text-anchor="middle" x="198.5" y="-99.75" font-family="Roboto" font-size="10.00">users</text>
</g>
<!-- IncludeGroup -->
<g id="node3" class="node">
<title>IncludeGroup</title>
<g id="a_node3"><a xlink:href="http://IncludeGroup_details.html" xlink:title="&lt;TABLE&gt;">
<polygon fill="#3f51b5" stroke="none" points="237.5,-311.25 237.5,-329.25 409.5,-329.25 409.5,-311.25 237.5,-311.25"/>
<polygon fill="none" stroke="black" points="237.5,-311.25 237.5,-329.25 409.5,-329.25 409.5,-311.25 237.5,-311.25"/>
<text text-anchor="start" x="287.5" y="-314.85" font-family="Roboto" font-size="12.00" fill="white">IncludeGroup</text>
<polygon fill="#bbdefb" stroke="none" points="237.5,-293.25 237.5,-311.25 322.5,-311.25 322.5,-293.25 237.5,-293.25"/>
<polygon fill="none" stroke="black" points="237.5,-293.25 237.5,-311.25 322.5,-311.25 322.5,-293.25 237.5,-293.25"/>
<text text-anchor="start" x="275.12" y="-296.85" font-family="Roboto" font-size="12.00">id</text>
<polygon fill="#bbdefb" stroke="none" points="322.5,-293.25 322.5,-311.25 409.5,-311.25 409.5,-293.25 322.5,-293.25"/>
<polygon fill="none" stroke="black" points="322.5,-293.25 322.5,-311.25 409.5,-311.25 409.5,-293.25 322.5,-293.25"/>
<text text-anchor="start" x="325.5" y="-296.85" font-family="Roboto" font-size="12.00">INTEGER (PK)</text>
<polygon fill="#bbdefb" stroke="none" points="237.5,-275.25 237.5,-293.25 322.5,-293.25 322.5,-275.25 237.5,-275.25"/>
<polygon fill="none" stroke="black" points="237.5,-275.25 237.5,-293.25 322.5,-293.25 322.5,-275.25 237.5,-275.25"/>
<text text-anchor="start" x="242.88" y="-278.85" font-family="Roboto" font-size="12.00">parentgroupid</text>
<polygon fill="#bbdefb" stroke="none" points="322.5,-275.25 322.5,-293.25 409.5,-293.25 409.5,-275.25 322.5,-275.25"/>
<polygon fill="none" stroke="black" points="322.5,-275.25 322.5,-293.25 409.5,-293.25 409.5,-275.25 322.5,-275.25"/>
<text text-anchor="start" x="333.75" y="-278.85" font-family="Roboto" font-size="12.00">INTEGER ()</text>
<polygon fill="#bbdefb" stroke="none" points="237.5,-257.25 237.5,-275.25 322.5,-275.25 322.5,-257.25 237.5,-257.25"/>
<polygon fill="none" stroke="black" points="237.5,-257.25 237.5,-275.25 322.5,-275.25 322.5,-257.25 237.5,-257.25"/>
<text text-anchor="start" x="240.25" y="-260.85" font-family="Roboto" font-size="12.00">includegroupid</text>
<polygon fill="#bbdefb" stroke="none" points="322.5,-257.25 322.5,-275.25 409.5,-275.25 409.5,-257.25 322.5,-257.25"/>
<polygon fill="none" stroke="black" points="322.5,-257.25 322.5,-275.25 409.5,-275.25 409.5,-257.25 322.5,-257.25"/>
<text text-anchor="start" x="333.75" y="-260.85" font-family="Roboto" font-size="12.00">INTEGER ()</text>
</a>
</g>
</g>
<!-- IncludeGroup&#45;&gt;Group -->
<g id="edge3" class="edge">
<title>IncludeGroup&#45;&gt;Group</title>
<g id="a_edge3"><a xlink:title="Relation between IncludeGroup and Group">
<path fill="none" stroke="#1e88e5" stroke-dasharray="5,2" d="M306.12,-253.27C286.53,-209.31 254.64,-137.77 233.37,-90.06"/>
<polygon fill="#1e88e5" stroke="#1e88e5" points="236.62,-88.75 229.35,-81.04 230.22,-91.6 236.62,-88.75"/>
</a>
</g>
<text text-anchor="middle" x="270.62" y="-99.75" font-family="Roboto" font-size="10.00">parent_group</text>
</g>
<!-- IncludeGroup&#45;&gt;Group -->
<g id="edge4" class="edge">
<title>IncludeGroup&#45;&gt;Group</title>
<g id="a_edge4"><a xlink:title="Relation between IncludeGroup and Group">
<path fill="none" stroke="#1e88e5" stroke-dasharray="5,2" d="M327.6,-253.33C330.03,-211.69 328.09,-145.26 298.5,-98 296.26,-94.42 293.7,-91.02 290.91,-87.8"/>
<polygon fill="#1e88e5" stroke="#1e88e5" points="293.54,-85.48 284.05,-80.76 288.52,-90.36 293.54,-85.48"/>
</a>
</g>
<text text-anchor="middle" x="329.25" y="-99.75" font-family="Roboto" font-size="10.00">child_group</text>
</g>
</g>
</svg>
